<?xml version="1.0" encoding="us-ascii" standalone="no"?><svg xmlns="http://www.w3.org/2000/svg" xmlns:xlink="http://www.w3.org/1999/xlink" contentStyleType="text/css" height="595px" preserveAspectRatio="none" style="width:622px;height:595px;background:#FFFFFF;" version="1.1" viewBox="0 0 622 595" width="622px" zoomAndPan="magnify"><defs/><g><!--class Juego--><g id="elem_Juego"><rect codeLine="2" fill="#F1F1F1" height="65.6094" id="Juego" rx="2.5" ry="2.5" style="stroke:#181818;stroke-width:0.5;" width="177" x="245.5" y="7"/><ellipse cx="310.75" cy="23" fill="#ADD1B2" rx="11" ry="11" style="stroke:#181818;stroke-width:1.0;"/><path d="M313.5156,18.875 Q313.6719,18.6563 313.8594,18.5469 Q314.0469,18.4375 314.2656,18.4375 Q314.6406,18.4375 314.875,18.6953 Q315.1094,18.9531 315.1094,19.5625 L315.1094,21.0156 Q315.1094,21.625 314.875,21.8906 Q314.6406,22.1563 314.2656,22.1563 Q313.9219,22.1563 313.7188,21.9531 Q313.5156,21.7656 313.4063,21.25 Q313.3594,20.8906 313.1719,20.7031 Q312.8438,20.3281 312.2344,20.1094 Q311.625,19.8906 311,19.8906 Q310.2344,19.8906 309.6016,20.2188 Q308.9688,20.5469 308.4766,21.2969 Q307.9844,22.0469 307.9844,23.0781 L307.9844,24.1719 Q307.9844,25.4063 308.875,26.2266 Q309.7656,27.0469 311.3594,27.0469 Q312.2969,27.0469 312.9531,26.7969 Q313.3438,26.6406 313.7656,26.2031 Q314.0313,25.9375 314.1797,25.8594 Q314.3281,25.7813 314.5313,25.7813 Q314.8594,25.7813 315.1172,26.0391 Q315.375,26.2969 315.375,26.6406 Q315.375,26.9844 315.0313,27.3906 Q314.5313,27.9688 313.7344,28.2969 Q312.6563,28.75 311.3594,28.75 Q309.8438,28.75 308.6406,28.125 Q307.6563,27.625 306.9688,26.5547 Q306.2813,25.4844 306.2813,24.2031 L306.2813,23.0469 Q306.2813,21.7188 306.8984,20.5703 Q307.5156,19.4219 308.6094,18.8047 Q309.7031,18.1875 310.9375,18.1875 Q311.6719,18.1875 312.3203,18.3516 Q312.9688,18.5156 313.5156,18.875 Z " fill="#000000"/><text fill="#000000" font-family="sans-serif" font-size="14" lengthAdjust="spacing" textLength="38" x="331.25" y="28.7285">Juego</text><line style="stroke:#181818;stroke-width:0.5;" x1="246.5" x2="421.5" y1="39" y2="39"/><line style="stroke:#181818;stroke-width:0.5;" x1="246.5" x2="421.5" y1="47" y2="47"/><ellipse cx="256.5" cy="61.3047" fill="#84BE84" rx="3" ry="3" style="stroke:#038048;stroke-width:1.0;"/><text fill="#000000" font-family="sans-serif" font-size="14" lengthAdjust="spacing" textLength="151" x="265.5" y="65.5332">main(String[] args): void</text></g><!--class Buscaminas--><g id="elem_Buscaminas"><rect codeLine="7" fill="#F1F1F1" height="100.8281" id="Buscaminas" rx="2.5" ry="2.5" style="stroke:#181818;stroke-width:0.5;" width="133" x="267.5" y="133"/><ellipse cx="293.75" cy="149" fill="#ADD1B2" rx="11" ry="11" style="stroke:#181818;stroke-width:1.0;"/><path d="M296.5156,144.875 Q296.6719,144.6563 296.8594,144.5469 Q297.0469,144.4375 297.2656,144.4375 Q297.6406,144.4375 297.875,144.6953 Q298.1094,144.9531 298.1094,145.5625 L298.1094,147.0156 Q298.1094,147.625 297.875,147.8906 Q297.6406,148.1563 297.2656,148.1563 Q296.9219,148.1563 296.7188,147.9531 Q296.5156,147.7656 296.4063,147.25 Q296.3594,146.8906 296.1719,146.7031 Q295.8438,146.3281 295.2344,146.1094 Q294.625,145.8906 294,145.8906 Q293.2344,145.8906 292.6016,146.2188 Q291.9688,146.5469 291.4766,147.2969 Q290.9844,148.0469 290.9844,149.0781 L290.9844,150.1719 Q290.9844,151.4063 291.875,152.2266 Q292.7656,153.0469 294.3594,153.0469 Q295.2969,153.0469 295.9531,152.7969 Q296.3438,152.6406 296.7656,152.2031 Q297.0313,151.9375 297.1797,151.8594 Q297.3281,151.7813 297.5313,151.7813 Q297.8594,151.7813 298.1172,152.0391 Q298.375,152.2969 298.375,152.6406 Q298.375,152.9844 298.0313,153.3906 Q297.5313,153.9688 296.7344,154.2969 Q295.6563,154.75 294.3594,154.75 Q292.8438,154.75 291.6406,154.125 Q290.6563,153.625 289.9688,152.5547 Q289.2813,151.4844 289.2813,150.2031 L289.2813,149.0469 Q289.2813,147.7188 289.8984,146.5703 Q290.5156,145.4219 291.6094,144.8047 Q292.7031,144.1875 293.9375,144.1875 Q294.6719,144.1875 295.3203,144.3516 Q295.9688,144.5156 296.5156,144.875 Z " fill="#000000"/><text fill="#000000" font-family="sans-serif" font-size="14" lengthAdjust="spacing" textLength="76" x="310.25" y="154.7285">Buscaminas</text><line style="stroke:#181818;stroke-width:0.5;" x1="268.5" x2="399.5" y1="165" y2="165"/><rect fill="none" height="6" style="stroke:#C82930;stroke-width:1.0;" width="6" x="275.5" y="176.3047"/><text fill="#000000" font-family="sans-serif" font-size="14" lengthAdjust="spacing" textLength="101" x="287.5" y="183.5332">tablero: Tablero</text><rect fill="none" height="6" style="stroke:#C82930;stroke-width:1.0;" width="6" x="275.5" y="193.9141"/><text fill="#000000" font-family="sans-serif" font-size="14" lengthAdjust="spacing" textLength="107" x="287.5" y="201.1426">jugador: Jugador</text><line style="stroke:#181818;stroke-width:0.5;" x1="268.5" x2="399.5" y1="208.2188" y2="208.2188"/><ellipse cx="278.5" cy="222.5234" fill="#84BE84" rx="3" ry="3" style="stroke:#038048;stroke-width:1.0;"/><text fill="#000000" font-family="sans-serif" font-size="14" lengthAdjust="spacing" textLength="76" x="287.5" y="226.752">jugar(): void</text></g><!--class Tablero--><g id="elem_Tablero"><rect codeLine="13" fill="#F1F1F1" height="294.5313" id="Tablero" rx="2.5" ry="2.5" style="stroke:#181818;stroke-width:0.5;" width="332" x="7" y="294"/><ellipse cx="144.25" cy="310" fill="#ADD1B2" rx="11" ry="11" style="stroke:#181818;stroke-width:1.0;"/><path d="M147.0156,305.875 Q147.1719,305.6563 147.3594,305.5469 Q147.5469,305.4375 147.7656,305.4375 Q148.1406,305.4375 148.375,305.6953 Q148.6094,305.9531 148.6094,306.5625 L148.6094,308.0156 Q148.6094,308.625 148.375,308.8906 Q148.1406,309.1563 147.7656,309.1563 Q147.4219,309.1563 147.2188,308.9531 Q147.0156,308.7656 146.9063,308.25 Q146.8594,307.8906 146.6719,307.7031 Q146.3438,307.3281 145.7344,307.1094 Q145.125,306.8906 144.5,306.8906 Q143.7344,306.8906 143.1016,307.2188 Q142.4688,307.5469 141.9766,308.2969 Q141.4844,309.0469 141.4844,310.0781 L141.4844,311.1719 Q141.4844,312.4063 142.375,313.2266 Q143.2656,314.0469 144.8594,314.0469 Q145.7969,314.0469 146.4531,313.7969 Q146.8438,313.6406 147.2656,313.2031 Q147.5313,312.9375 147.6797,312.8594 Q147.8281,312.7813 148.0313,312.7813 Q148.3594,312.7813 148.6172,313.0391 Q148.875,313.2969 148.875,313.6406 Q148.875,313.9844 148.5313,314.3906 Q148.0313,314.9688 147.2344,315.2969 Q146.1563,315.75 144.8594,315.75 Q143.3438,315.75 142.1406,315.125 Q141.1563,314.625 140.4688,313.5547 Q139.7813,312.4844 139.7813,311.2031 L139.7813,310.0469 Q139.7813,308.7188 140.3984,307.5703 Q141.0156,306.4219 142.1094,305.8047 Q143.2031,305.1875 144.4375,305.1875 Q145.1719,305.1875 145.8203,305.3516 Q146.4688,305.5156 147.0156,305.875 Z " fill="#000000"/><text fill="#000000" font-family="sans-serif" font-size="14" lengthAdjust="spacing" textLength="49" x="164.75" y="315.7285">Tablero</text><line style="stroke:#181818;stroke-width:0.5;" x1="8" x2="338" y1="326" y2="326"/><rect fill="none" height="6" style="stroke:#C82930;stroke-width:1.0;" width="6" x="15" y="337.3047"/><text fill="#000000" font-family="sans-serif" font-size="14" lengthAdjust="spacing" textLength="125" x="27" y="344.5332">mapaReal: String[][]</text><rect fill="none" height="6" style="stroke:#C82930;stroke-width:1.0;" width="6" x="15" y="354.9141"/><text fill="#000000" font-family="sans-serif" font-size="14" lengthAdjust="spacing" textLength="137" x="27" y="362.1426">mapaVisible: String[][]</text><rect fill="none" height="6" style="stroke:#C82930;stroke-width:1.0;" width="6" x="15" y="372.5234"/><text fill="#000000" font-family="sans-serif" font-size="14" lengthAdjust="spacing" textLength="152" x="27" y="379.752">partidaPerdida: boolean</text><line style="stroke:#181818;stroke-width:0.5;" x1="8" x2="338" y1="386.8281" y2="386.8281"/><ellipse cx="18" cy="401.1328" fill="#84BE84" rx="3" ry="3" style="stroke:#038048;stroke-width:1.0;"/><text fill="#000000" font-family="sans-serif" font-size="14" lengthAdjust="spacing" textLength="59" x="27" y="405.3613">Tablero()</text><ellipse cx="18" cy="418.7422" fill="#84BE84" rx="3" ry="3" style="stroke:#038048;stroke-width:1.0;"/><text fill="#000000" font-family="sans-serif" font-size="14" lengthAdjust="spacing" textLength="143" x="27" y="422.9707">inicializarMapas(): void</text><ellipse cx="18" cy="436.3516" fill="#84BE84" rx="3" ry="3" style="stroke:#038048;stroke-width:1.0;"/><text fill="#000000" font-family="sans-serif" font-size="14" lengthAdjust="spacing" textLength="178" x="27" y="440.5801">inicializarMapaVidible(): void</text><ellipse cx="18" cy="453.9609" fill="#84BE84" rx="3" ry="3" style="stroke:#038048;stroke-width:1.0;"/><text fill="#000000" font-family="sans-serif" font-size="14" lengthAdjust="spacing" textLength="131" x="27" y="458.1895">generarMinas(): void</text><ellipse cx="18" cy="471.5703" fill="#84BE84" rx="3" ry="3" style="stroke:#038048;stroke-width:1.0;"/><text fill="#000000" font-family="sans-serif" font-size="14" lengthAdjust="spacing" textLength="150" x="27" y="475.7988">generarNumeros(): void</text><ellipse cx="18" cy="489.1797" fill="#84BE84" rx="3" ry="3" style="stroke:#038048;stroke-width:1.0;"/><text fill="#000000" font-family="sans-serif" font-size="14" lengthAdjust="spacing" textLength="255" x="27" y="493.4082">marcarCasilla(fila: int, columna: int): void</text><ellipse cx="18" cy="506.7891" fill="#84BE84" rx="3" ry="3" style="stroke:#038048;stroke-width:1.0;"/><text fill="#000000" font-family="sans-serif" font-size="14" lengthAdjust="spacing" textLength="269" x="27" y="511.0176">colocarBandera(fila: int, columna: int): void</text><ellipse cx="18" cy="524.3984" fill="#84BE84" rx="3" ry="3" style="stroke:#038048;stroke-width:1.0;"/><text fill="#000000" font-family="sans-serif" font-size="14" lengthAdjust="spacing" textLength="306" x="27" y="528.627">comprobarLimites(fila: int, columna: int): boolean</text><ellipse cx="18" cy="542.0078" fill="#84BE84" rx="3" ry="3" style="stroke:#038048;stroke-width:1.0;"/><text fill="#000000" font-family="sans-serif" font-size="14" lengthAdjust="spacing" textLength="270" x="27" y="546.2363">ense&#241;arCasillas(fila: int, columna: int): void</text><ellipse cx="18" cy="559.6172" fill="#84BE84" rx="3" ry="3" style="stroke:#038048;stroke-width:1.0;"/><text fill="#000000" font-family="sans-serif" font-size="14" lengthAdjust="spacing" textLength="181" x="27" y="563.8457">partidaTerminada(): boolean</text><ellipse cx="18" cy="577.2266" fill="#84BE84" rx="3" ry="3" style="stroke:#038048;stroke-width:1.0;"/><text fill="#000000" font-family="sans-serif" font-size="14" lengthAdjust="spacing" textLength="183" x="27" y="581.4551">jugadorHaPerdido(): boolean</text></g><!--class Jugador--><g id="elem_Jugador"><rect codeLine="30" fill="#F1F1F1" height="83.2188" id="Jugador" rx="2.5" ry="2.5" style="stroke:#181818;stroke-width:0.5;" width="241" x="374.5" y="400"/><ellipse cx="465.25" cy="416" fill="#ADD1B2" rx="11" ry="11" style="stroke:#181818;stroke-width:1.0;"/><path d="M468.0156,411.875 Q468.1719,411.6563 468.3594,411.5469 Q468.5469,411.4375 468.7656,411.4375 Q469.1406,411.4375 469.375,411.6953 Q469.6094,411.9531 469.6094,412.5625 L469.6094,414.0156 Q469.6094,414.625 469.375,414.8906 Q469.1406,415.1563 468.7656,415.1563 Q468.4219,415.1563 468.2188,414.9531 Q468.0156,414.7656 467.9063,414.25 Q467.8594,413.8906 467.6719,413.7031 Q467.3438,413.3281 466.7344,413.1094 Q466.125,412.8906 465.5,412.8906 Q464.7344,412.8906 464.1016,413.2188 Q463.4688,413.5469 462.9766,414.2969 Q462.4844,415.0469 462.4844,416.0781 L462.4844,417.1719 Q462.4844,418.4063 463.375,419.2266 Q464.2656,420.0469 465.8594,420.0469 Q466.7969,420.0469 467.4531,419.7969 Q467.8438,419.6406 468.2656,419.2031 Q468.5313,418.9375 468.6797,418.8594 Q468.8281,418.7813 469.0313,418.7813 Q469.3594,418.7813 469.6172,419.0391 Q469.875,419.2969 469.875,419.6406 Q469.875,419.9844 469.5313,420.3906 Q469.0313,420.9688 468.2344,421.2969 Q467.1563,421.75 465.8594,421.75 Q464.3438,421.75 463.1406,421.125 Q462.1563,420.625 461.4688,419.5547 Q460.7813,418.4844 460.7813,417.2031 L460.7813,416.0469 Q460.7813,414.7188 461.3984,413.5703 Q462.0156,412.4219 463.1094,411.8047 Q464.2031,411.1875 465.4375,411.1875 Q466.1719,411.1875 466.8203,411.3516 Q467.4688,411.5156 468.0156,411.875 Z " fill="#000000"/><text fill="#000000" font-family="sans-serif" font-size="14" lengthAdjust="spacing" textLength="51" x="485.75" y="421.7285">Jugador</text><line style="stroke:#181818;stroke-width:0.5;" x1="375.5" x2="614.5" y1="432" y2="432"/><rect fill="none" height="6" style="stroke:#C82930;stroke-width:1.0;" width="6" x="382.5" y="443.3047"/><text fill="#000000" font-family="sans-serif" font-size="14" lengthAdjust="spacing" textLength="112" x="394.5" y="450.5332">scanner: Scanner</text><line style="stroke:#181818;stroke-width:0.5;" x1="375.5" x2="614.5" y1="457.6094" y2="457.6094"/><ellipse cx="385.5" cy="471.9141" fill="#84BE84" rx="3" ry="3" style="stroke:#038048;stroke-width:1.0;"/><text fill="#000000" font-family="sans-serif" font-size="14" lengthAdjust="spacing" textLength="215" x="394.5" y="476.1426">jugarTurno(tablero: Tablero): void</text></g><!--link Buscaminas to Tablero--><g id="link_Buscaminas_Tablero"><path codeLine="35" d="M302.77,234.16 C291.75,251.68 281.9251,267.3115 268.4551,288.7215 " fill="none" id="Buscaminas-to-Tablero" style="stroke:#181818;stroke-width:1.0;"/><polygon fill="#181818" points="265.26,293.8,273.4383,288.3123,267.9226,289.5679,266.667,284.0522,265.26,293.8" style="stroke:#181818;stroke-width:1.0;"/></g><!--link Buscaminas to Jugador--><g id="link_Buscaminas_Jugador"><path codeLine="36" d="M365.23,234.16 C395.59,282.44 437.9454,349.7812 466.2254,394.7412 " fill="none" id="Buscaminas-to-Jugador" style="stroke:#181818;stroke-width:1.0;"/><polygon fill="#181818" points="469.42,399.82,468.014,390.072,466.7578,395.5876,461.2422,394.3315,469.42,399.82" style="stroke:#181818;stroke-width:1.0;"/></g><!--link Juego to Buscaminas--><g id="link_Juego_Buscaminas"><path codeLine="37" d="M334,73.11 C334,90.72 334,106.94 334,126.75 " fill="none" id="Juego-to-Buscaminas" style="stroke:#181818;stroke-width:1.0;"/><polygon fill="#181818" points="334,132.75,338,123.75,334,127.75,330,123.75,334,132.75" style="stroke:#181818;stroke-width:1.0;"/></g><!--SRC=[ZL9BJiD03DtFARnC1Rr05YpA1Y502AfkgYwSp10PpQVo92n078epS36SoJHDFqBD9Xu_lsVBVhN56E6-CqtuKY3V5O13yiLho-IRzGQGcpWhuIEGLkfRgJen5bsiqP7723rl3YrMrd0eOJa4AVdUDQW3bz8W1QhNxvDSx2H7nSpBSWwt-6BGbh0RPBqPWHL5ak8JR8lSaiPdmrf-9LGXM8C-TStonIozo5DDQEaJ-L44upZE6N15kkzsKD8ORrZWVW7dWAVEIRD3o27NoBSOoLeitiZAXEJRQwY3xPmVNbE2v8Cm5kYrQ5x6S5iE5V83EMfD_8SptOtnqVp-ZBF5IrhbNIyDzoxGM1nfvjFVvMk4AJxUFDiYtrmSvMLxSjOXsBjbsR4FnR759XQQs17cyniOtNIAx7ggPFgKszUeFm00]--></g></svg>