<?xml version="1.0" encoding="us-ascii" standalone="no"?><svg xmlns="http://www.w3.org/2000/svg" xmlns:xlink="http://www.w3.org/1999/xlink" contentStyleType="text/css" height="525px" preserveAspectRatio="none" style="width:585px;height:525px;background:#FFFFFF;" version="1.1" viewBox="0 0 585 525" width="585px" zoomAndPan="magnify"><defs/><g><!--class Juego--><g id="elem_Juego"><rect codeLine="2" fill="#F1F1F1" height="65.6094" id="Juego" rx="2.5" ry="2.5" style="stroke:#181818;stroke-width:0.5;" width="177" x="217" y="7"/><ellipse cx="282.25" cy="23" fill="#ADD1B2" rx="11" ry="11" style="stroke:#181818;stroke-width:1.0;"/><path d="M285.0156,18.875 Q285.1719,18.6563 285.3594,18.5469 Q285.5469,18.4375 285.7656,18.4375 Q286.1406,18.4375 286.375,18.6953 Q286.6094,18.9531 286.6094,19.5625 L286.6094,21.0156 Q286.6094,21.625 286.375,21.8906 Q286.1406,22.1563 285.7656,22.1563 Q285.4219,22.1563 285.2188,21.9531 Q285.0156,21.7656 284.9063,21.25 Q284.8594,20.8906 284.6719,20.7031 Q284.3438,20.3281 283.7344,20.1094 Q283.125,19.8906 282.5,19.8906 Q281.7344,19.8906 281.1016,20.2188 Q280.4688,20.5469 279.9766,21.2969 Q279.4844,22.0469 279.4844,23.0781 L279.4844,24.1719 Q279.4844,25.4063 280.375,26.2266 Q281.2656,27.0469 282.8594,27.0469 Q283.7969,27.0469 284.4531,26.7969 Q284.8438,26.6406 285.2656,26.2031 Q285.5313,25.9375 285.6797,25.8594 Q285.8281,25.7813 286.0313,25.7813 Q286.3594,25.7813 286.6172,26.0391 Q286.875,26.2969 286.875,26.6406 Q286.875,26.9844 286.5313,27.3906 Q286.0313,27.9688 285.2344,28.2969 Q284.1563,28.75 282.8594,28.75 Q281.3438,28.75 280.1406,28.125 Q279.1563,27.625 278.4688,26.5547 Q277.7813,25.4844 277.7813,24.2031 L277.7813,23.0469 Q277.7813,21.7188 278.3984,20.5703 Q279.0156,19.4219 280.1094,18.8047 Q281.2031,18.1875 282.4375,18.1875 Q283.1719,18.1875 283.8203,18.3516 Q284.4688,18.5156 285.0156,18.875 Z " fill="#000000"/><text fill="#000000" font-family="sans-serif" font-size="14" lengthAdjust="spacing" textLength="38" x="302.75" y="28.7285">Juego</text><line style="stroke:#181818;stroke-width:0.5;" x1="218" x2="393" y1="39" y2="39"/><line style="stroke:#181818;stroke-width:0.5;" x1="218" x2="393" y1="47" y2="47"/><ellipse cx="228" cy="61.3047" fill="#84BE84" rx="3" ry="3" style="stroke:#038048;stroke-width:1.0;"/><text fill="#000000" font-family="sans-serif" font-size="14" lengthAdjust="spacing" textLength="151" x="237" y="65.5332">main(String[] args): void</text></g><!--class Buscaminas--><g id="elem_Buscaminas"><rect codeLine="7" fill="#F1F1F1" height="100.8281" id="Buscaminas" rx="2.5" ry="2.5" style="stroke:#181818;stroke-width:0.5;" width="133" x="239" y="133"/><ellipse cx="265.25" cy="149" fill="#ADD1B2" rx="11" ry="11" style="stroke:#181818;stroke-width:1.0;"/><path d="M268.0156,144.875 Q268.1719,144.6563 268.3594,144.5469 Q268.5469,144.4375 268.7656,144.4375 Q269.1406,144.4375 269.375,144.6953 Q269.6094,144.9531 269.6094,145.5625 L269.6094,147.0156 Q269.6094,147.625 269.375,147.8906 Q269.1406,148.1563 268.7656,148.1563 Q268.4219,148.1563 268.2188,147.9531 Q268.0156,147.7656 267.9063,147.25 Q267.8594,146.8906 267.6719,146.7031 Q267.3438,146.3281 266.7344,146.1094 Q266.125,145.8906 265.5,145.8906 Q264.7344,145.8906 264.1016,146.2188 Q263.4688,146.5469 262.9766,147.2969 Q262.4844,148.0469 262.4844,149.0781 L262.4844,150.1719 Q262.4844,151.4063 263.375,152.2266 Q264.2656,153.0469 265.8594,153.0469 Q266.7969,153.0469 267.4531,152.7969 Q267.8438,152.6406 268.2656,152.2031 Q268.5313,151.9375 268.6797,151.8594 Q268.8281,151.7813 269.0313,151.7813 Q269.3594,151.7813 269.6172,152.0391 Q269.875,152.2969 269.875,152.6406 Q269.875,152.9844 269.5313,153.3906 Q269.0313,153.9688 268.2344,154.2969 Q267.1563,154.75 265.8594,154.75 Q264.3438,154.75 263.1406,154.125 Q262.1563,153.625 261.4688,152.5547 Q260.7813,151.4844 260.7813,150.2031 L260.7813,149.0469 Q260.7813,147.7188 261.3984,146.5703 Q262.0156,145.4219 263.1094,144.8047 Q264.2031,144.1875 265.4375,144.1875 Q266.1719,144.1875 266.8203,144.3516 Q267.4688,144.5156 268.0156,144.875 Z " fill="#000000"/><text fill="#000000" font-family="sans-serif" font-size="14" lengthAdjust="spacing" textLength="76" x="281.75" y="154.7285">Buscaminas</text><line style="stroke:#181818;stroke-width:0.5;" x1="240" x2="371" y1="165" y2="165"/><rect fill="none" height="6" style="stroke:#C82930;stroke-width:1.0;" width="6" x="247" y="176.3047"/><text fill="#000000" font-family="sans-serif" font-size="14" lengthAdjust="spacing" textLength="101" x="259" y="183.5332">tablero: Tablero</text><rect fill="none" height="6" style="stroke:#C82930;stroke-width:1.0;" width="6" x="247" y="193.9141"/><text fill="#000000" font-family="sans-serif" font-size="14" lengthAdjust="spacing" textLength="107" x="259" y="201.1426">jugador: Jugador</text><line style="stroke:#181818;stroke-width:0.5;" x1="240" x2="371" y1="208.2188" y2="208.2188"/><ellipse cx="250" cy="222.5234" fill="#84BE84" rx="3" ry="3" style="stroke:#038048;stroke-width:1.0;"/><text fill="#000000" font-family="sans-serif" font-size="14" lengthAdjust="spacing" textLength="76" x="259" y="226.752">jugar(): void</text></g><!--class Tablero--><g id="elem_Tablero"><rect codeLine="13" fill="#F1F1F1" height="224.0938" id="Tablero" rx="2.5" ry="2.5" style="stroke:#181818;stroke-width:0.5;" width="295" x="7" y="294"/><ellipse cx="125.75" cy="310" fill="#ADD1B2" rx="11" ry="11" style="stroke:#181818;stroke-width:1.0;"/><path d="M128.5156,305.875 Q128.6719,305.6563 128.8594,305.5469 Q129.0469,305.4375 129.2656,305.4375 Q129.6406,305.4375 129.875,305.6953 Q130.1094,305.9531 130.1094,306.5625 L130.1094,308.0156 Q130.1094,308.625 129.875,308.8906 Q129.6406,309.1563 129.2656,309.1563 Q128.9219,309.1563 128.7188,308.9531 Q128.5156,308.7656 128.4063,308.25 Q128.3594,307.8906 128.1719,307.7031 Q127.8438,307.3281 127.2344,307.1094 Q126.625,306.8906 126,306.8906 Q125.2344,306.8906 124.6016,307.2188 Q123.9688,307.5469 123.4766,308.2969 Q122.9844,309.0469 122.9844,310.0781 L122.9844,311.1719 Q122.9844,312.4063 123.875,313.2266 Q124.7656,314.0469 126.3594,314.0469 Q127.2969,314.0469 127.9531,313.7969 Q128.3438,313.6406 128.7656,313.2031 Q129.0313,312.9375 129.1797,312.8594 Q129.3281,312.7813 129.5313,312.7813 Q129.8594,312.7813 130.1172,313.0391 Q130.375,313.2969 130.375,313.6406 Q130.375,313.9844 130.0313,314.3906 Q129.5313,314.9688 128.7344,315.2969 Q127.6563,315.75 126.3594,315.75 Q124.8438,315.75 123.6406,315.125 Q122.6563,314.625 121.9688,313.5547 Q121.2813,312.4844 121.2813,311.2031 L121.2813,310.0469 Q121.2813,308.7188 121.8984,307.5703 Q122.5156,306.4219 123.6094,305.8047 Q124.7031,305.1875 125.9375,305.1875 Q126.6719,305.1875 127.3203,305.3516 Q127.9688,305.5156 128.5156,305.875 Z " fill="#000000"/><text fill="#000000" font-family="sans-serif" font-size="14" lengthAdjust="spacing" textLength="49" x="146.25" y="315.7285">Tablero</text><line style="stroke:#181818;stroke-width:0.5;" x1="8" x2="301" y1="326" y2="326"/><rect fill="none" height="6" style="stroke:#C82930;stroke-width:1.0;" width="6" x="15" y="337.3047"/><text fill="#000000" font-family="sans-serif" font-size="14" lengthAdjust="spacing" textLength="125" x="27" y="344.5332">mapaReal: String[][]</text><rect fill="none" height="6" style="stroke:#C82930;stroke-width:1.0;" width="6" x="15" y="354.9141"/><text fill="#000000" font-family="sans-serif" font-size="14" lengthAdjust="spacing" textLength="137" x="27" y="362.1426">mapaVisible: String[][]</text><rect fill="none" height="6" style="stroke:#C82930;stroke-width:1.0;" width="6" x="15" y="372.5234"/><text fill="#000000" font-family="sans-serif" font-size="14" lengthAdjust="spacing" textLength="152" x="27" y="379.752">partidaPerdida: boolean</text><line style="stroke:#181818;stroke-width:0.5;" x1="8" x2="301" y1="386.8281" y2="386.8281"/><ellipse cx="18" cy="401.1328" fill="#84BE84" rx="3" ry="3" style="stroke:#038048;stroke-width:1.0;"/><text fill="#000000" font-family="sans-serif" font-size="14" lengthAdjust="spacing" textLength="143" x="27" y="405.3613">inicializarMapas(): void</text><ellipse cx="18" cy="418.7422" fill="#84BE84" rx="3" ry="3" style="stroke:#038048;stroke-width:1.0;"/><text fill="#000000" font-family="sans-serif" font-size="14" lengthAdjust="spacing" textLength="131" x="27" y="422.9707">generarMinas(): void</text><ellipse cx="18" cy="436.3516" fill="#84BE84" rx="3" ry="3" style="stroke:#038048;stroke-width:1.0;"/><text fill="#000000" font-family="sans-serif" font-size="14" lengthAdjust="spacing" textLength="150" x="27" y="440.5801">generarNumeros(): void</text><ellipse cx="18" cy="453.9609" fill="#84BE84" rx="3" ry="3" style="stroke:#038048;stroke-width:1.0;"/><text fill="#000000" font-family="sans-serif" font-size="14" lengthAdjust="spacing" textLength="255" x="27" y="458.1895">revelarCasilla(fila: int, columna: int): void</text><ellipse cx="18" cy="471.5703" fill="#84BE84" rx="3" ry="3" style="stroke:#038048;stroke-width:1.0;"/><text fill="#000000" font-family="sans-serif" font-size="14" lengthAdjust="spacing" textLength="269" x="27" y="475.7988">colocarBandera(fila: int, columna: int): void</text><ellipse cx="18" cy="489.1797" fill="#84BE84" rx="3" ry="3" style="stroke:#038048;stroke-width:1.0;"/><text fill="#000000" font-family="sans-serif" font-size="14" lengthAdjust="spacing" textLength="181" x="27" y="493.4082">partidaTerminada(): boolean</text><ellipse cx="18" cy="506.7891" fill="#84BE84" rx="3" ry="3" style="stroke:#038048;stroke-width:1.0;"/><text fill="#000000" font-family="sans-serif" font-size="14" lengthAdjust="spacing" textLength="158" x="27" y="511.0176">jugadorPerdio(): boolean</text></g><!--class Jugador--><g id="elem_Jugador"><rect codeLine="26" fill="#F1F1F1" height="83.2188" id="Jugador" rx="2.5" ry="2.5" style="stroke:#181818;stroke-width:0.5;" width="241" x="337" y="364.5"/><ellipse cx="427.75" cy="380.5" fill="#ADD1B2" rx="11" ry="11" style="stroke:#181818;stroke-width:1.0;"/><path d="M430.5156,376.375 Q430.6719,376.1563 430.8594,376.0469 Q431.0469,375.9375 431.2656,375.9375 Q431.6406,375.9375 431.875,376.1953 Q432.1094,376.4531 432.1094,377.0625 L432.1094,378.5156 Q432.1094,379.125 431.875,379.3906 Q431.6406,379.6563 431.2656,379.6563 Q430.9219,379.6563 430.7188,379.4531 Q430.5156,379.2656 430.4063,378.75 Q430.3594,378.3906 430.1719,378.2031 Q429.8438,377.8281 429.2344,377.6094 Q428.625,377.3906 428,377.3906 Q427.2344,377.3906 426.6016,377.7188 Q425.9688,378.0469 425.4766,378.7969 Q424.9844,379.5469 424.9844,380.5781 L424.9844,381.6719 Q424.9844,382.9063 425.875,383.7266 Q426.7656,384.5469 428.3594,384.5469 Q429.2969,384.5469 429.9531,384.2969 Q430.3438,384.1406 430.7656,383.7031 Q431.0313,383.4375 431.1797,383.3594 Q431.3281,383.2813 431.5313,383.2813 Q431.8594,383.2813 432.1172,383.5391 Q432.375,383.7969 432.375,384.1406 Q432.375,384.4844 432.0313,384.8906 Q431.5313,385.4688 430.7344,385.7969 Q429.6563,386.25 428.3594,386.25 Q426.8438,386.25 425.6406,385.625 Q424.6563,385.125 423.9688,384.0547 Q423.2813,382.9844 423.2813,381.7031 L423.2813,380.5469 Q423.2813,379.2188 423.8984,378.0703 Q424.5156,376.9219 425.6094,376.3047 Q426.7031,375.6875 427.9375,375.6875 Q428.6719,375.6875 429.3203,375.8516 Q429.9688,376.0156 430.5156,376.375 Z " fill="#000000"/><text fill="#000000" font-family="sans-serif" font-size="14" lengthAdjust="spacing" textLength="51" x="448.25" y="386.2285">Jugador</text><line style="stroke:#181818;stroke-width:0.5;" x1="338" x2="577" y1="396.5" y2="396.5"/><rect fill="none" height="6" style="stroke:#C82930;stroke-width:1.0;" width="6" x="345" y="407.8047"/><text fill="#000000" font-family="sans-serif" font-size="14" lengthAdjust="spacing" textLength="112" x="357" y="415.0332">scanner: Scanner</text><line style="stroke:#181818;stroke-width:0.5;" x1="338" x2="577" y1="422.1094" y2="422.1094"/><ellipse cx="348" cy="436.4141" fill="#84BE84" rx="3" ry="3" style="stroke:#038048;stroke-width:1.0;"/><text fill="#000000" font-family="sans-serif" font-size="14" lengthAdjust="spacing" textLength="215" x="357" y="440.6426">jugarTurno(tablero: Tablero): void</text></g><!--link Buscaminas to Tablero--><g id="link_Buscaminas_Tablero"><path codeLine="31" d="M271.42,234.26 C259.25,252.04 248.3814,267.9204 234.0814,288.7904 " fill="none" id="Buscaminas-to-Tablero" style="stroke:#181818;stroke-width:1.0;"/><polygon fill="#181818" points="230.69,293.74,239.0768,288.5766,233.5162,289.6154,232.4774,284.0547,230.69,293.74" style="stroke:#181818;stroke-width:1.0;"/></g><!--link Buscaminas to Jugador--><g id="link_Buscaminas_Jugador"><path codeLine="32" d="M339.8,234.26 C366.86,273.51 400.7255,322.6294 426.0155,359.3294 " fill="none" id="Buscaminas-to-Jugador" style="stroke:#181818;stroke-width:1.0;"/><polygon fill="#181818" points="429.42,364.27,427.6069,354.5895,426.5829,360.1529,421.0195,359.1289,429.42,364.27" style="stroke:#181818;stroke-width:1.0;"/></g><!--link Juego to Buscaminas--><g id="link_Juego_Buscaminas"><path codeLine="33" d="M305.5,73.11 C305.5,90.72 305.5,106.94 305.5,126.75 " fill="none" id="Juego-to-Buscaminas" style="stroke:#181818;stroke-width:1.0;"/><polygon fill="#181818" points="305.5,132.75,309.5,123.75,305.5,127.75,301.5,123.75,305.5,132.75" style="stroke:#181818;stroke-width:1.0;"/></g><!--SRC=[ZLAnJiGm3Dtp5HwBu7wW0yEn8O4GL2od6tn9g8pIvEGqDu3uTvmqxHMEWInr_U9d-xreXp72VR9z-5GWvnfWGFBDoyZa-zqUaFjurS8fa57gIobTAhOfQXp8OuHSju4H3yvoQA6RWf9yJpsQmAqqA87A_3d9pKovCDQwIZVW4PyjkXRcGNRx1NYbI7Bv0ZiYZsJmoRAHJmk749n5NxgI9qtew0FvGIZYCa06U-ij2v3t-GjuJ8ECzXDYUx8E-GuZEOVD6pdfI7wy0HrS6lpqjwwGVD38M_H6IFzJKHVgB6Uf3UO1rajLVSl2OGqkgbRXgwhYcPU5HBWfEFlH9VQX-MtYogILuR3PtCBYroKozrJbMPNS-Oxw1W00]--></g></svg>